#!OML:ASF H:\LiuWeirdWalks\Patient Classification 1\Patient 1\Session 1\male.ASF
:FULLY-SPECIFIED
:DEGREES
528
root 0.799482 18.1934 20.3917 2.59175 4.23383 -1.67112
lowerback 3.84582 -6.37897 -3.0257
upperback -0.431791 -8.56131 5.37312
thorax -1.31731 -4.26875 7.61976
lowerneck -11.1218 2.82564 7.53101
upperneck 14.6674 3.96341 -8.88783
head 6.61558 1.61318 -3.75082
rclavicle 4.44284e-014 1.03368e-014
rhumerus -39.7869 -9.11593 -69.9932
rradius 19.1441
rwrist -1.55015
rhand -17.3625 4.48779
rfingers 7.12502
rthumb 8.88557 -25.3051
lclavicle 4.44284e-014 1.03368e-014
lhumerus -18.3247 -30.8115 97.2237
lradius 47.4731
lwrist 16.3248
lhand -16.9232 -9.29608
lfingers 7.12502
lthumb 9.30941 20.4784
rfemur -10.4951 -4.78887 25.6548
rtibia 28.5617
rfoot -11.2228 -20.8589
rtoes -4.94312
lfemur -15.5992 6.47652 -15.4125
ltibia 52.3191
lfoot -8.66738 19.1369
ltoes -15.3277
529
root 0.785721 18.1692 20.5193 2.41063 4.37084 -1.96322
lowerback 3.77877 -6.0899 -2.73378
upperback -0.329313 -8.16112 5.37415
thorax -1.2748 -4.07191 7.43825
lowerneck -11.2836 2.74405 7.44757
upperneck 14.857 3.8714 -8.90083
head 6.69468 1.55819 -3.75143
rclavicle -8.70677e-014 -1.59028e-015
rhumerus -37.9827 -8.05677 -71.8649
rradius 19.0521
rwrist -1.80845
rhand -17.4892 4.22872
rfingers 7.12502
rthumb 8.76333 -25.5694
lclavicle -8.70677e-014 -1.59028e-015
lhumerus -19.4377 -30.6473 97.5794
lradius 46.3862
lwrist 15.8149
lhand -16.7589 -9.17925
lfingers 7.12502
lthumb 9.46794 20.5881
rfemur -9.82501 -4.75852 26.0228
rtibia 28.5534
rfoot -11.7042 -21.0717
rtoes -5.02251
lfemur -16.6067 6.22843 -15.0989
ltibia 52.0943
lfoot -9.23464 19.2029
ltoes -15.4275
530
root 0.773178 18.1459 20.6465 2.23512 4.51599 -2.24018
lowerback 3.74194 -5.80525 -2.46133
upperback -0.25193 -7.76791 5.37415
thorax -1.26788 -3.87662 7.27149
lowerneck -11.4015 2.67182 7.41071
upperneck 15.0376 3.79225 -8.94923
head 6.76609 1.51022 -3.77064
rclavicle -6.55989e-015 1.43125e-014
rhumerus -36.2157 -6.89344 -73.5983
rradius 19.058
rwrist -2.06636
rhand -17.5541 3.99898
rfingers 7.12502
rthumb 8.70063 -25.8017
lclavicle -6.55989e-015 1.43125e-014
lhumerus -20.5349 -30.2712 97.8727
lradius 45.1973
lwrist 15.2146
lhand -16.5956 -9.05057
lfingers 7.12502
lthumb 9.62551 20.7095
rfemur -9.13207 -4.7397 26.37
rtibia 28.4797
rfoot -12.1511 -21.2674
rtoes -5.1029
lfemur -17.6038 5.9244 -14.8117
ltibia 51.7997
lfoot -9.7606 19.2724
ltoes -15.4917
531
root 0.761919 18.1242 20.7734 2.07589 4.6645 -2.49731
lowerback 3.71639 -5.56296 -2.23713
upperback -0.194352 -7.43389 5.3627
thorax -1.27147 -3.71011 7.12227
lowerneck -11.452 2.6548 7.51671
upperneck 15.1799 3.77638 -9.06709
head 6.82306 1.49709 -3.83065
rclavicle 6.71892e-014 -3.73715e-014
rhumerus -34.4525 -5.63186 -75.2365
rradius 19.1161
rwrist -2.27427
rhand -17.5718 3.83956
rfingers 7.12502
rthumb 8.68355 -25.9618
lclavicle 6.71892e-014 -3.73715e-014
lhumerus -21.6013 -29.5837 97.9911
lradius 43.9249
lwrist 14.531
lhand -16.4315 -8.90643
lfingers 7.12502
lthumb 9.78387 20.8463
rfemur -8.42259 -4.72595 26.6919
rtibia 28.3292
rfoot -12.5486 -21.4467
rtoes -5.17231
lfemur -18.593 5.57695 -14.5564
ltibia 51.4224
lfoot -10.2218 19.3426
ltoes -15.5222
532
root 0.751429 18.1055 20.9001 1.92723 4.79744 -2.7635
lowerback 3.69433 -5.37725 -2.0559
upperback -0.168501 -7.17727 5.34622
thorax -1.29222 -3.58134 6.99502
lowerneck -11.329 2.70629 7.81604
upperneck 15.2571 3.84217 -9.27965
head 6.84146 1.53133 -3.9466
rclavicle -5.76476e-015 3.97569e-014
rhumerus -32.7293 -4.2569 -76.7967
rradius 19.2066
rwrist -2.43833
rhand -17.5681 3.74344
rfingers 7.12502
rthumb 8.68715 -26.0578
lclavicle -5.76476e-015 3.97569e-014
lhumerus -22.6852 -28.4446 97.8983
lradius 42.5974
lwrist 13.6677
lhand -16.2597 -8.75035
lfingers 7.12502
lthumb 9.94959 20.9945
rfemur -7.6877 -4.68568 27.027
rtibia 28.0909
rfoot -12.8819 -21.6284
rtoes -5.25562
lfemur -19.5688 5.20942 -14.29
ltibia 50.9542
lfoot -10.5985 19.3861
ltoes -15.4932
533
root 0.741962 18.0901 21.0269 1.79134 4.91376 -3.00346
lowerback 3.66087 -5.22175 -1.92596
upperback -0.137594 -6.96425 5.31289
thorax -1.28992 -3.47505 6.87741
lowerneck -11.1752 2.80268 8.23115
upperneck 15.301 3.95705 -9.53603
head 6.85194 1.59354 -4.09173
rclavicle 1.19271e-014 1.74931e-014
rhumerus -30.9833 -2.92672 -78.2283
rradius 19.3157
rwrist -2.54705
rhand -17.5464 3.69483
rfingers 7.12502
rthumb 8.70812 -26.1055
lclavicle 1.19271e-014 1.74931e-014
lhumerus -23.6797 -26.9764 97.5609
lradius 41.2162
lwrist 12.7016
lhand -16.1028 -8.54275
lfingers 7.12502
lthumb 10.101 21.1948
rfemur -6.92199 -4.64175 27.3321
rtibia 27.7587
rfoot -13.1498 -21.7914
rtoes -5.34046
lfemur -20.5155 4.8206 -14.0538
ltibia 50.3831
lfoot -10.8766 19.4093
ltoes -15.4778
